<svg width="1110" height="512" viewBox="0 0 1110 512" fill="none" xmlns="http://www.w3.org/2000/svg">
<rect y="33" width="1110" height="473" rx="30" fill="url(#paint0_linear_2511_15)"/>
<path d="M1045.32 8.40942C1036.51 5.76877 1027.19 5.27611 1018.14 6.97259C1009.1 8.66907 1000.59 12.5054 993.327 18.1612C986.066 23.817 980.264 31.1281 976.406 39.4837C972.548 47.8393 970.307 55.2896 970.71 64.4842L1023.08 81.0258L1045.32 8.40942Z" fill="#C8A0CB"/>
<path d="M43 506L77 415L426 460L410.519 506H43Z" fill="white"/>
<path d="M466.483 142.923L277.542 73.8838C241.381 60.6705 201.337 79.1389 187.911 115.222L79.128 407.59C62.111 453.325 95.9358 502 144.734 502H361.746C391.232 502 417.556 483.523 427.578 455.792L508.291 232.464C521.399 196.196 502.704 156.159 466.483 142.923Z" fill="white" stroke="black"/>
<path d="M114.046 317.926C140.05 327.429 168.764 326.213 193.871 314.546C218.978 302.878 238.422 281.715 247.925 255.711C257.429 229.708 256.213 200.994 244.546 175.887C232.878 150.78 211.715 131.336 185.711 121.832L149.879 219.879L114.046 317.926Z" fill="url(#paint1_linear_2511_15)"/>
<path d="M162.022 459.92C136.605 431.269 139.226 387.439 167.876 362.022C196.527 336.605 240.357 339.226 265.775 367.876C291.192 396.527 288.571 440.358 259.92 465.775C231.269 491.192 187.439 488.571 162.022 459.92ZM243.671 387.485C229.084 371.042 203.928 369.538 187.485 384.125C171.042 398.713 169.538 423.868 184.125 440.311C198.713 456.754 223.868 458.259 240.311 443.671C256.754 429.084 258.259 403.929 243.671 387.485Z" fill="#F8BC17"/>
<path d="M306.658 180.051C308.196 180.585 309.434 181.356 310.372 182.365C311.31 183.374 311.899 184.541 312.137 185.866C312.395 187.182 312.273 188.56 311.772 190.001C311.277 191.428 310.518 192.585 309.496 193.472C308.487 194.364 307.295 194.913 305.92 195.118C304.558 195.329 303.115 195.169 301.591 194.64L296.125 192.741L301.192 178.152L306.658 180.051ZM302.431 191.485C303.775 191.951 304.948 191.947 305.951 191.473C306.955 190.999 307.69 190.089 308.156 188.745C308.623 187.402 308.612 186.226 308.124 185.218C307.636 184.21 306.72 183.472 305.376 183.005L303.692 182.421L300.747 190.9L302.431 191.485ZM317.458 185.805C316.835 185.588 316.385 185.23 316.108 184.73C315.85 184.221 315.815 183.697 316.003 183.156C316.195 182.602 316.548 182.212 317.061 181.987C317.593 181.752 318.17 181.743 318.794 181.96C319.403 182.172 319.837 182.532 320.095 183.041C320.372 183.541 320.414 184.067 320.222 184.622C320.034 185.162 319.674 185.549 319.142 185.784C318.629 186.009 318.068 186.016 317.458 185.805ZM318.806 187.624L314.779 199.22L311.225 197.986L315.253 186.389L318.806 187.624ZM325.845 189.882C326.663 190.166 327.318 190.58 327.813 191.124C328.321 191.673 328.647 192.276 328.792 192.932L329.362 191.29L332.916 192.524L328.895 204.1C328.525 205.167 327.976 206.055 327.248 206.765C326.529 207.493 325.644 207.962 324.593 208.172C323.556 208.386 322.393 208.269 321.105 207.822C319.387 207.225 318.136 206.333 317.354 205.145C316.566 203.971 316.336 202.664 316.665 201.226L320.177 202.446C320.134 202.928 320.277 203.365 320.606 203.759C320.93 204.167 321.397 204.477 322.007 204.688C322.741 204.943 323.398 204.931 323.976 204.65C324.564 204.389 325.019 203.794 325.342 202.865L325.912 201.224C325.378 201.644 324.746 201.921 324.016 202.056C323.291 202.176 322.52 202.095 321.702 201.811C320.746 201.479 319.964 200.936 319.357 200.181C318.754 199.413 318.381 198.499 318.236 197.44C318.111 196.372 318.255 195.242 318.668 194.05C319.082 192.859 319.667 191.889 320.423 191.143C321.193 190.401 322.051 189.923 322.995 189.707C323.939 189.492 324.889 189.55 325.845 189.882ZM327.348 197.088C327.656 196.201 327.65 195.415 327.329 194.729C327.022 194.048 326.515 193.585 325.809 193.339C325.102 193.094 324.411 193.141 323.734 193.48C323.076 193.811 322.593 194.419 322.285 195.306C321.977 196.193 321.974 196.983 322.276 197.678C322.596 198.364 323.11 198.83 323.817 199.075C324.523 199.321 325.208 199.271 325.871 198.927C326.548 198.588 327.04 197.975 327.348 197.088ZM337.693 192.832C337.069 192.616 336.619 192.258 336.342 191.758C336.084 191.249 336.049 190.724 336.237 190.184C336.429 189.63 336.782 189.24 337.295 189.015C337.827 188.78 338.405 188.771 339.028 188.988C339.638 189.199 340.071 189.56 340.329 190.068C340.606 190.568 340.648 191.095 340.456 191.649C340.268 192.19 339.908 192.577 339.377 192.812C338.864 193.037 338.302 193.044 337.693 192.832ZM339.041 194.651L335.013 206.248L331.459 205.013L335.487 193.417L339.041 194.651ZM345.098 206.374L344.052 209.387L342.243 208.759C340.955 208.312 340.059 207.651 339.555 206.777C339.056 205.89 339.054 204.732 339.55 203.305L341.152 198.692L339.739 198.201L340.764 195.25L342.177 195.741L343.159 192.914L346.712 194.149L345.731 196.975L348.058 197.783L347.033 200.734L344.706 199.926L343.089 204.581C342.969 204.928 342.965 205.206 343.079 205.416C343.192 205.626 343.442 205.799 343.83 205.933L345.098 206.374ZM347.345 204.01C347.759 202.819 348.344 201.85 349.1 201.103C349.87 200.361 350.728 199.883 351.672 199.667C352.616 199.452 353.566 199.51 354.522 199.842C355.34 200.126 355.995 200.54 356.49 201.084C356.998 201.633 357.324 202.236 357.469 202.892L358.039 201.25L361.593 202.484L357.565 214.081L354.011 212.846L354.582 211.204C354.048 211.625 353.411 211.893 352.672 212.008C351.947 212.129 351.176 212.048 350.358 211.764C349.416 211.437 348.641 210.896 348.034 210.141C347.431 209.373 347.058 208.459 346.913 207.4C346.788 206.332 346.932 205.202 347.345 204.01ZM356.025 207.048C356.333 206.161 356.327 205.375 356.006 204.689C355.699 204.008 355.192 203.545 354.486 203.299C353.779 203.054 353.088 203.101 352.411 203.44C351.753 203.771 351.27 204.379 350.962 205.266C350.654 206.153 350.651 206.944 350.953 207.638C351.273 208.324 351.787 208.79 352.494 209.035C353.2 209.281 353.885 209.231 354.548 208.887C355.225 208.548 355.717 207.935 356.025 207.048ZM369.031 200.829L363.69 216.208L360.136 214.973L365.477 199.595L369.031 200.829ZM385.224 212.601C384.93 213.446 384.467 214.155 383.833 214.727C383.205 215.285 382.414 215.639 381.461 215.789C380.509 215.94 379.436 215.808 378.245 215.394L376.042 214.629L374.223 219.866L370.669 218.632L375.736 204.043L381.493 206.042C382.657 206.446 383.571 206.989 384.235 207.67C384.899 208.351 385.309 209.114 385.465 209.96C385.622 210.806 385.541 211.687 385.224 212.601ZM378.956 212.474C379.635 212.71 380.196 212.726 380.64 212.523C381.083 212.32 381.405 211.927 381.607 211.345C381.81 210.763 381.8 210.255 381.578 209.821C381.356 209.387 380.906 209.052 380.227 208.816L378.294 208.145L377.024 211.803L378.956 212.474ZM390.548 214.707C391.185 214.214 391.878 213.895 392.626 213.752C393.38 213.594 394.137 213.648 394.899 213.912L393.593 217.674L392.616 217.335C391.73 217.027 390.997 216.99 390.419 217.224C389.846 217.444 389.393 218.032 389.061 218.988L387.192 224.37L383.638 223.136L387.666 211.54L391.219 212.774L390.548 214.707ZM397.748 228.223C396.612 227.829 395.671 227.23 394.925 226.428C394.193 225.63 393.72 224.689 393.506 223.606C393.306 222.527 393.416 221.385 393.834 220.18C394.248 218.988 394.875 218.034 395.714 217.316C396.558 216.584 397.522 216.135 398.604 215.968C399.687 215.8 400.797 215.914 401.933 216.309C403.069 216.703 404.01 217.302 404.756 218.104C405.502 218.907 405.979 219.857 406.188 220.954C406.402 222.037 406.302 223.175 405.888 224.366C405.474 225.558 404.838 226.517 403.98 227.244C403.141 227.961 402.173 228.402 401.076 228.564C399.994 228.731 398.884 228.618 397.748 228.223ZM398.816 225.147C399.495 225.383 400.157 225.333 400.801 224.998C401.459 224.668 401.95 224.039 402.272 223.11C402.594 222.182 402.607 221.387 402.309 220.724C402.025 220.067 401.543 219.62 400.865 219.384C400.172 219.144 399.51 219.193 398.88 219.533C398.254 219.86 397.778 220.494 397.45 221.436C397.128 222.364 397.102 223.155 397.372 223.807C397.656 224.465 398.137 224.912 398.816 225.147ZM407.074 224.755C407.488 223.563 408.073 222.594 408.829 221.848C409.599 221.106 410.456 220.627 411.4 220.412C412.345 220.197 413.295 220.255 414.251 220.587C415.013 220.852 415.65 221.251 416.163 221.787C416.69 222.327 417.039 222.929 417.212 223.595L419.081 218.212L422.635 219.447L417.294 234.825L413.74 233.591L414.317 231.929C413.792 232.367 413.16 232.645 412.421 232.761C411.696 232.881 410.925 232.8 410.108 232.516C409.152 232.184 408.37 231.641 407.762 230.886C407.16 230.118 406.786 229.204 406.642 228.145C406.516 227.076 406.66 225.946 407.074 224.755ZM415.754 227.793C416.062 226.906 416.055 226.12 415.735 225.434C415.428 224.753 414.921 224.29 414.214 224.044C413.508 223.799 412.816 223.846 412.139 224.185C411.481 224.516 410.998 225.124 410.69 226.011C410.382 226.898 410.379 227.688 410.681 228.383C411.002 229.069 411.516 229.535 412.222 229.78C412.929 230.026 413.614 229.976 414.277 229.632C414.953 229.293 415.446 228.68 415.754 227.793ZM435.343 228.099L431.316 239.695L427.762 238.461L428.31 236.882C427.772 237.269 427.136 237.514 426.402 237.616C425.686 237.709 424.955 237.626 424.206 237.366C423.32 237.058 422.604 236.592 422.06 235.969C421.521 235.331 421.194 234.573 421.08 233.695C420.966 232.817 421.084 231.872 421.435 230.861L423.788 224.086L427.321 225.313L425.134 231.61C424.865 232.386 424.856 233.058 425.109 233.627C425.362 234.196 425.827 234.599 426.506 234.834C427.199 235.075 427.821 235.05 428.372 234.76C428.923 234.471 429.333 233.938 429.602 233.162L431.79 226.865L435.343 228.099ZM435.176 234.538C435.594 233.333 436.202 232.364 437 231.632C437.812 230.905 438.738 230.45 439.779 230.269C440.834 230.092 441.93 230.2 443.066 230.595C444.521 231.1 445.601 231.902 446.306 233.001C447.025 234.105 447.296 235.402 447.12 236.894L443.338 235.58C443.327 234.583 442.864 233.925 441.95 233.608C441.299 233.381 440.69 233.457 440.124 233.835C439.563 234.199 439.119 234.852 438.792 235.794C438.464 236.736 438.406 237.531 438.616 238.179C438.83 238.812 439.263 239.242 439.914 239.468C440.829 239.786 441.599 239.556 442.226 238.78L446.008 240.094C445.232 241.346 444.217 242.189 442.964 242.623C441.711 243.058 440.364 243.024 438.923 242.524C437.787 242.129 436.86 241.536 436.141 240.743C435.437 239.955 434.992 239.024 434.806 237.95C434.634 236.881 434.757 235.744 435.176 234.538ZM453.961 244.184L452.915 247.197L451.106 246.569C449.818 246.122 448.922 245.461 448.418 244.587C447.919 243.7 447.917 242.543 448.413 241.116L450.015 236.502L448.602 236.011L449.627 233.06L451.04 233.551L452.022 230.724L455.575 231.959L454.594 234.785L456.921 235.594L455.896 238.545L453.569 237.736L451.952 242.391C451.832 242.738 451.828 243.016 451.942 243.226C452.055 243.436 452.305 243.609 452.693 243.743L453.961 244.184ZM293.534 217.836C295.072 218.371 296.31 219.142 297.249 220.151C298.187 221.16 298.775 222.327 299.014 223.652C299.271 224.968 299.149 226.346 298.649 227.787C298.153 229.214 297.394 230.371 296.372 231.258C295.363 232.15 294.171 232.699 292.796 232.904C291.434 233.114 289.991 232.955 288.467 232.425L283.002 230.527L288.069 215.938L293.534 217.836ZM289.307 229.27C290.651 229.737 291.824 229.733 292.828 229.259C293.831 228.784 294.566 227.875 295.033 226.531C295.499 225.187 295.489 224.011 295 223.003C294.512 221.995 293.596 221.258 292.252 220.791L290.569 220.207L287.624 228.686L289.307 229.27ZM311.111 233.583C310.996 233.915 310.855 234.255 310.688 234.6L302.645 231.807C302.451 232.547 302.487 233.18 302.754 233.708C303.04 234.226 303.48 234.589 304.076 234.796C304.963 235.104 305.709 234.944 306.315 234.316L310.098 235.63C309.639 236.324 309.048 236.887 308.323 237.319C307.613 237.755 306.816 238.014 305.934 238.096C305.052 238.178 304.14 238.055 303.197 237.728C302.061 237.333 301.134 236.74 300.416 235.947C299.698 235.154 299.245 234.22 299.059 233.147C298.873 232.073 298.99 230.933 299.408 229.728C299.827 228.523 300.435 227.554 301.233 226.822C302.044 226.094 302.978 225.642 304.033 225.465C305.088 225.288 306.191 225.399 307.341 225.799C308.463 226.189 309.379 226.771 310.088 227.545C310.797 228.319 311.243 229.227 311.424 230.268C311.62 231.314 311.516 232.419 311.111 233.583ZM307.799 231.385C308.011 230.775 307.972 230.218 307.681 229.713C307.391 229.209 306.934 228.848 306.31 228.632C305.714 228.425 305.149 228.422 304.613 228.624C304.09 228.831 303.67 229.236 303.352 229.84L307.799 231.385ZM315.567 242.024C314.556 241.673 313.715 241.187 313.046 240.566C312.377 239.946 311.917 239.258 311.666 238.503C311.421 237.735 311.4 236.967 311.605 236.2L315.117 237.42C315.019 237.836 315.093 238.226 315.339 238.591C315.585 238.956 315.95 239.223 316.435 239.391C316.878 239.545 317.247 239.58 317.54 239.495C317.852 239.402 318.056 239.217 318.152 238.94C318.268 238.607 318.179 238.304 317.885 238.032C317.597 237.745 317.098 237.37 316.39 236.907C315.626 236.424 315.003 235.983 314.521 235.582C314.044 235.168 313.684 234.663 313.441 234.066C313.202 233.455 313.22 232.755 313.495 231.965C313.726 231.3 314.115 230.76 314.663 230.345C315.23 229.921 315.921 229.672 316.739 229.599C317.57 229.53 318.477 229.667 319.461 230.009C320.916 230.514 321.934 231.271 322.515 232.28C323.11 233.294 323.262 234.419 322.973 235.653L319.69 234.513C319.774 234.092 319.704 233.711 319.481 233.369C319.272 233.033 318.925 232.78 318.44 232.612C318.025 232.467 317.677 232.44 317.398 232.529C317.123 232.605 316.938 232.781 316.841 233.058C316.726 233.39 316.813 233.7 317.101 233.986C317.404 234.278 317.9 234.637 318.591 235.063C319.373 235.583 319.995 236.047 320.459 236.457C320.927 236.852 321.277 237.362 321.511 237.987C321.763 238.602 321.756 239.314 321.491 240.122C321.255 240.801 320.85 241.344 320.274 241.749C319.717 242.146 319.025 242.371 318.199 242.426C317.387 242.485 316.509 242.351 315.567 242.024ZM328.729 232.063C328.106 231.847 327.656 231.488 327.379 230.989C327.121 230.48 327.086 229.955 327.274 229.415C327.466 228.861 327.819 228.471 328.332 228.245C328.864 228.011 329.441 228.002 330.065 228.218C330.674 228.43 331.108 228.79 331.366 229.299C331.643 229.799 331.685 230.326 331.493 230.88C331.305 231.421 330.945 231.808 330.413 232.043C329.9 232.268 329.339 232.275 328.729 232.063ZM330.077 233.882L326.05 245.479L322.496 244.244L326.524 232.648L330.077 233.882ZM337.116 236.141C337.934 236.424 338.589 236.839 339.084 237.383C339.592 237.932 339.918 238.534 340.063 239.19L340.633 237.548L344.187 238.783L340.166 250.358C339.796 251.425 339.247 252.313 338.519 253.023C337.8 253.752 336.915 254.221 335.864 254.43C334.827 254.644 333.664 254.528 332.376 254.08C330.658 253.484 329.407 252.591 328.625 251.403C327.837 250.229 327.607 248.923 327.936 247.485L331.448 248.704C331.405 249.186 331.548 249.624 331.877 250.018C332.201 250.425 332.668 250.735 333.278 250.947C334.012 251.202 334.669 251.189 335.247 250.909C335.835 250.647 336.29 250.052 336.613 249.124L337.183 247.482C336.649 247.902 336.017 248.18 335.287 248.314C334.562 248.435 333.791 248.353 332.973 248.07C332.017 247.737 331.235 247.194 330.628 246.44C330.025 245.672 329.652 244.758 329.507 243.698C329.382 242.63 329.526 241.5 329.939 240.309C330.353 239.117 330.938 238.148 331.694 237.401C332.464 236.66 333.322 236.181 334.266 235.966C335.21 235.75 336.16 235.809 337.116 236.141ZM338.619 243.347C338.927 242.46 338.921 241.674 338.6 240.988C338.293 240.307 337.786 239.843 337.08 239.598C336.373 239.353 335.682 239.4 335.005 239.739C334.347 240.069 333.864 240.678 333.556 241.565C333.248 242.451 333.245 243.242 333.547 243.937C333.867 244.623 334.381 245.088 335.088 245.334C335.794 245.579 336.479 245.53 337.142 245.186C337.819 244.846 338.311 244.233 338.619 243.347ZM353.867 242.005C355.225 242.477 356.152 243.295 356.647 244.461C357.161 245.618 357.151 246.965 356.617 248.503L354.264 255.278L350.731 254.051L352.918 247.754C353.188 246.978 353.196 246.306 352.944 245.737C352.691 245.168 352.225 244.765 351.546 244.529C350.867 244.294 350.253 244.321 349.702 244.611C349.151 244.901 348.74 245.433 348.471 246.209L346.284 252.506L342.73 251.272L346.758 239.676L350.312 240.91L349.777 242.448C350.316 242.06 350.94 241.827 351.651 241.748C352.366 241.655 353.105 241.74 353.867 242.005Z" fill="#353535"/>
<path d="M269.431 270.791L272.761 271.948L272.308 273.251L267.363 271.534L270.784 261.686L272.399 262.247L269.431 270.791ZM277.001 275.024C276.265 274.768 275.656 274.372 275.176 273.834C274.699 273.288 274.395 272.653 274.265 271.93C274.138 271.198 274.214 270.43 274.493 269.628C274.769 268.834 275.188 268.191 275.751 267.698C276.314 267.206 276.955 266.899 277.674 266.778C278.394 266.658 279.126 266.727 279.873 266.986C280.619 267.245 281.237 267.645 281.727 268.186C282.216 268.727 282.529 269.365 282.666 270.1C282.802 270.835 282.732 271.6 282.457 272.393C282.181 273.187 281.757 273.828 281.185 274.318C280.613 274.807 279.956 275.113 279.214 275.237C278.485 275.354 277.748 275.283 277.001 275.024ZM277.489 273.621C277.904 273.766 278.326 273.801 278.754 273.727C279.191 273.657 279.592 273.463 279.957 273.145C280.321 272.827 280.602 272.384 280.799 271.818C280.996 271.251 281.053 270.736 280.97 270.273C280.89 269.801 280.706 269.403 280.416 269.08C280.126 268.757 279.773 268.524 279.357 268.379C278.941 268.235 278.52 268.199 278.092 268.273C277.673 268.35 277.291 268.551 276.946 268.876C276.603 269.191 276.334 269.632 276.137 270.198C275.845 271.039 275.831 271.765 276.095 272.375C276.372 272.98 276.837 273.395 277.489 273.621ZM286.628 270.746C287.002 270.431 287.421 270.232 287.884 270.15C288.359 270.061 288.866 270.11 289.404 270.297L288.824 271.969L288.413 271.826C287.78 271.606 287.242 271.6 286.8 271.806C286.367 272.016 286.013 272.517 285.738 273.311L284.311 277.42L282.695 276.859L285.407 269.051L287.022 269.612L286.628 270.746ZM296.711 277.138C296.61 277.431 296.499 277.689 296.379 277.912L290.414 275.84C290.244 276.48 290.302 277.061 290.586 277.583C290.871 278.105 291.315 278.471 291.92 278.681C292.789 278.983 293.529 278.833 294.141 278.23L295.884 278.835C295.398 279.471 294.763 279.912 293.979 280.159C293.207 280.399 292.364 280.36 291.447 280.041C290.701 279.782 290.088 279.384 289.607 278.847C289.14 278.303 288.841 277.67 288.711 276.947C288.594 276.219 288.674 275.453 288.953 274.65C289.232 273.847 289.637 273.199 290.168 272.706C290.712 272.207 291.334 271.893 292.035 271.766C292.745 271.642 293.482 271.713 294.248 271.979C294.984 272.235 295.585 272.623 296.05 273.145C296.514 273.666 296.806 274.275 296.923 274.973C297.045 275.66 296.974 276.382 296.711 277.138ZM295.202 276.042C295.4 275.444 295.353 274.893 295.062 274.389C294.771 273.886 294.318 273.528 293.704 273.315C293.147 273.121 292.608 273.135 292.086 273.356C291.568 273.568 291.166 273.963 290.881 274.541L295.202 276.042ZM309.086 277.133C309.7 277.346 310.203 277.664 310.597 278.086C310.999 278.512 311.251 279.022 311.351 279.618C311.46 280.217 311.392 280.871 311.146 281.58L309.546 286.185L307.945 285.629L309.461 281.264C309.704 280.565 309.714 279.971 309.493 279.481C309.275 278.982 308.863 278.627 308.259 278.417C307.654 278.207 307.107 278.229 306.616 278.482C306.139 278.729 305.779 279.202 305.536 279.901L304.02 284.265L302.419 283.709L303.935 279.345C304.178 278.646 304.188 278.052 303.967 277.562C303.748 277.062 303.337 276.708 302.732 276.498C302.128 276.288 301.58 276.309 301.09 276.563C300.613 276.81 300.253 277.283 300.01 277.982L298.494 282.346L296.879 281.785L299.59 273.977L301.206 274.539L300.896 275.431C301.272 275.202 301.694 275.068 302.163 275.03C302.631 274.991 303.097 275.052 303.56 275.213C304.183 275.43 304.695 275.756 305.094 276.191C305.493 276.626 305.738 277.14 305.829 277.732C306.229 277.342 306.727 277.097 307.323 276.997C307.922 276.887 308.51 276.932 309.086 277.133ZM319.175 279.621C318.883 279.519 318.671 279.334 318.542 279.067C318.413 278.8 318.399 278.52 318.5 278.227C318.602 277.934 318.787 277.723 319.054 277.593C319.321 277.464 319.601 277.45 319.894 277.552C320.177 277.65 320.384 277.833 320.513 278.1C320.643 278.368 320.657 278.648 320.555 278.941C320.453 279.233 320.269 279.445 320.001 279.574C319.734 279.704 319.459 279.719 319.175 279.621ZM319.61 280.931L316.898 288.738L315.283 288.177L317.994 280.37L319.61 280.931ZM322.947 283.376C323.346 283.112 323.824 282.939 324.382 282.858C324.939 282.776 325.516 282.839 326.111 283.046C326.791 283.282 327.351 283.667 327.79 284.2C328.242 284.728 328.523 285.35 328.635 286.066C328.746 286.782 328.665 287.532 328.393 288.316C328.121 289.1 327.715 289.748 327.178 290.26C326.643 290.763 326.032 291.09 325.344 291.243C324.668 291.389 323.991 291.344 323.31 291.108C322.715 290.901 322.227 290.6 321.846 290.203C321.469 289.796 321.196 289.363 321.028 288.902L319.345 293.748L317.729 293.187L321.731 281.667L323.346 282.228L322.947 283.376ZM326.749 287.745C326.936 287.207 326.984 286.705 326.891 286.238C326.812 285.766 326.622 285.367 326.323 285.041C326.036 284.708 325.685 284.47 325.269 284.325C324.863 284.184 324.44 284.154 323.999 284.234C323.568 284.317 323.17 284.517 322.806 284.835C322.451 285.157 322.179 285.586 321.992 286.125C321.805 286.663 321.75 287.173 321.826 287.655C321.915 288.131 322.103 288.535 322.39 288.867C322.686 289.203 323.037 289.441 323.443 289.582C323.859 289.727 324.282 289.757 324.714 289.674C325.157 289.585 325.559 289.375 325.917 289.044C326.285 288.717 326.562 288.284 326.749 287.745ZM331.412 293.922C330.798 293.709 330.283 293.408 329.867 293.02C329.464 292.626 329.186 292.191 329.034 291.715C328.885 291.229 328.884 290.747 329.029 290.268L330.701 290.848C330.614 291.189 330.673 291.522 330.878 291.847C331.095 292.166 331.421 292.401 331.856 292.552C332.309 292.709 332.688 292.746 332.993 292.661C333.31 292.57 333.517 292.388 333.612 292.114C333.714 291.821 333.647 291.554 333.413 291.314C333.188 291.077 332.803 290.769 332.258 290.389C331.728 290.025 331.305 289.703 330.989 289.424C330.673 289.145 330.432 288.802 330.267 288.395C330.11 287.992 330.121 287.535 330.298 287.025C330.442 286.609 330.696 286.274 331.06 286.019C331.427 285.755 331.872 285.602 332.394 285.561C332.926 285.524 333.489 285.608 334.084 285.815C334.972 286.123 335.607 286.598 335.988 287.238C336.382 287.873 336.463 288.584 336.232 289.371L334.616 288.81C334.709 288.451 334.664 288.123 334.481 287.827C334.299 287.53 333.99 287.307 333.555 287.156C333.13 287.008 332.776 286.975 332.494 287.057C332.211 287.139 332.024 287.312 331.932 287.576C331.86 287.784 331.875 287.985 331.977 288.179C332.079 288.374 332.224 288.551 332.412 288.711C332.603 288.863 332.889 289.073 333.272 289.344C333.786 289.692 334.195 290.008 334.498 290.294C334.814 290.573 335.052 290.909 335.211 291.303C335.371 291.698 335.368 292.147 335.204 292.651C335.05 293.095 334.789 293.449 334.422 293.713C334.055 293.977 333.61 294.13 333.088 294.171C332.575 294.215 332.016 294.132 331.412 293.922ZM345.974 290.087L343.262 297.895L341.647 297.334L341.966 296.413C341.6 296.645 341.176 296.784 340.695 296.828C340.226 296.867 339.76 296.806 339.298 296.645C338.684 296.432 338.175 296.112 337.773 295.687C337.379 295.264 337.128 294.753 337.019 294.154C336.918 293.558 336.991 292.906 337.238 292.198L338.832 287.607L340.433 288.163L338.922 292.513C338.68 293.212 338.667 293.811 338.886 294.311C339.107 294.8 339.52 295.15 340.125 295.36C340.729 295.57 341.27 295.552 341.748 295.305C342.238 295.051 342.605 294.575 342.847 293.876L344.358 289.526L345.974 290.087ZM357.6 293.983C358.214 294.196 358.718 294.514 359.111 294.936C359.514 295.362 359.765 295.872 359.865 296.468C359.975 297.067 359.906 297.721 359.66 298.43L358.061 303.035L356.46 302.479L357.976 298.114C358.218 297.415 358.229 296.821 358.007 296.331C357.789 295.832 357.378 295.477 356.773 295.267C356.169 295.057 355.621 295.079 355.131 295.332C354.653 295.579 354.293 296.052 354.051 296.751L352.535 301.115L350.934 300.559L352.449 296.195C352.692 295.496 352.703 294.902 352.481 294.412C352.263 293.912 351.852 293.558 351.247 293.348C350.642 293.138 350.095 293.16 349.605 293.413C349.127 293.66 348.767 294.133 348.524 294.832L347.009 299.196L345.393 298.635L348.105 290.828L349.72 291.389L349.41 292.281C349.786 292.052 350.209 291.918 350.677 291.88C351.146 291.841 351.611 291.902 352.074 292.063C352.698 292.28 353.209 292.606 353.608 293.041C354.008 293.476 354.253 293.99 354.343 294.582C354.744 294.192 355.242 293.947 355.837 293.847C356.437 293.737 357.024 293.782 357.6 293.983ZM364.627 300.901C364.899 300.117 365.301 299.478 365.832 298.985C366.373 298.496 366.979 298.182 367.651 298.045C368.336 297.902 369.023 297.95 369.713 298.19C370.223 298.367 370.684 298.654 371.097 299.051C371.522 299.442 371.817 299.873 371.982 300.343L373.291 296.574L374.921 297.14L371.279 307.626L369.649 307.06L370.058 305.884C369.662 306.17 369.185 306.353 368.628 306.435C368.08 306.52 367.503 306.457 366.899 306.247C366.218 306.011 365.654 305.624 365.205 305.087C364.769 304.544 364.493 303.908 364.375 303.179C364.271 302.444 364.355 301.685 364.627 300.901ZM371.008 303.149C371.195 302.61 371.244 302.103 371.155 301.628C371.075 301.156 370.892 300.753 370.605 300.421C370.319 300.088 369.967 299.85 369.552 299.705C369.136 299.561 368.713 299.531 368.282 299.614C367.854 299.687 367.457 299.883 367.093 300.201C366.741 300.513 366.472 300.938 366.285 301.477C366.098 302.015 366.042 302.525 366.119 303.007C366.204 303.492 366.389 303.905 366.672 304.247C366.968 304.583 367.32 304.821 367.726 304.962C368.142 305.107 368.565 305.137 368.996 305.054C369.427 304.971 369.82 304.769 370.175 304.448C370.543 304.12 370.821 303.687 371.008 303.149ZM376.743 309.666C376.006 309.41 375.397 309.014 374.917 308.476C374.44 307.93 374.137 307.295 374.006 306.572C373.88 305.84 373.956 305.072 374.235 304.27C374.51 303.476 374.929 302.833 375.492 302.34C376.055 301.848 376.696 301.541 377.415 301.42C378.135 301.3 378.868 301.369 379.614 301.628C380.36 301.887 380.978 302.287 381.468 302.828C381.958 303.369 382.271 304.007 382.407 304.742C382.543 305.477 382.473 306.242 382.198 307.035C381.922 307.829 381.498 308.47 380.926 308.96C380.354 309.449 379.697 309.755 378.955 309.879C378.227 309.996 377.489 309.925 376.743 309.666ZM377.23 308.263C377.646 308.408 378.067 308.443 378.495 308.369C378.933 308.299 379.333 308.105 379.698 307.787C380.062 307.469 380.343 307.026 380.54 306.46C380.737 305.893 380.794 305.378 380.711 304.915C380.632 304.443 380.447 304.045 380.157 303.722C379.867 303.399 379.514 303.166 379.098 303.021C378.683 302.877 378.261 302.842 377.833 302.915C377.415 302.992 377.033 303.193 376.687 303.518C376.345 303.833 376.075 304.274 375.878 304.84C375.586 305.681 375.572 306.407 375.837 307.017C376.114 307.622 376.578 308.037 377.23 308.263ZM387.694 301.576L384.052 312.062L382.436 311.501L386.078 301.015L387.694 301.576ZM389.515 314.102C388.778 313.846 388.169 313.45 387.689 312.912C387.212 312.366 386.909 311.731 386.779 311.008C386.652 310.276 386.728 309.508 387.007 308.706C387.282 307.912 387.701 307.269 388.264 306.776C388.827 306.284 389.468 305.977 390.187 305.856C390.907 305.736 391.64 305.805 392.386 306.064C393.132 306.323 393.75 306.723 394.24 307.264C394.73 307.805 395.043 308.443 395.179 309.178C395.315 309.913 395.246 310.678 394.97 311.471C394.694 312.265 394.27 312.906 393.698 313.396C393.126 313.885 392.469 314.191 391.728 314.315C390.999 314.432 390.261 314.361 389.515 314.102ZM390.002 312.699C390.418 312.844 390.839 312.879 391.267 312.805C391.705 312.735 392.106 312.541 392.47 312.223C392.835 311.905 393.115 311.462 393.312 310.896C393.509 310.329 393.566 309.814 393.483 309.351C393.404 308.879 393.219 308.481 392.929 308.158C392.639 307.835 392.286 307.602 391.87 307.457C391.455 307.313 391.033 307.278 390.605 307.351C390.187 307.428 389.805 307.629 389.459 307.954C389.117 308.269 388.847 308.71 388.65 309.276C388.358 310.117 388.344 310.843 388.609 311.453C388.886 312.058 389.35 312.473 390.002 312.699ZM399.142 309.824C399.516 309.509 399.934 309.31 400.397 309.228C400.872 309.139 401.379 309.188 401.918 309.375L401.337 311.047L400.926 310.904C400.293 310.684 399.756 310.678 399.314 310.884C398.881 311.094 398.527 311.595 398.251 312.389L396.824 316.498L395.209 315.937L397.92 308.129L399.536 308.69L399.142 309.824ZM407.117 320.216C406.503 320.003 405.988 319.702 405.572 319.314C405.169 318.92 404.892 318.485 404.74 318.009C404.591 317.523 404.589 317.041 404.734 316.562L406.406 317.142C406.32 317.483 406.379 317.816 406.583 318.141C406.801 318.46 407.127 318.695 407.561 318.846C408.015 319.003 408.394 319.04 408.698 318.955C409.016 318.864 409.222 318.681 409.317 318.408C409.419 318.115 409.353 317.848 409.118 317.608C408.894 317.371 408.509 317.063 407.963 316.683C407.433 316.319 407.01 315.997 406.694 315.718C406.378 315.439 406.138 315.096 405.972 314.689C405.816 314.286 405.826 313.829 406.003 313.319C406.148 312.903 406.402 312.568 406.766 312.313C407.133 312.049 407.577 311.896 408.1 311.855C408.631 311.818 409.195 311.902 409.79 312.109C410.678 312.417 411.312 312.892 411.693 313.532C412.087 314.167 412.168 314.878 411.937 315.665L410.322 315.104C410.415 314.745 410.37 314.417 410.187 314.121C410.004 313.824 409.695 313.6 409.261 313.45C408.836 313.302 408.482 313.269 408.199 313.351C407.917 313.433 407.73 313.606 407.638 313.87C407.566 314.078 407.581 314.279 407.682 314.473C407.784 314.668 407.929 314.845 408.117 315.005C408.308 315.156 408.595 315.367 408.977 315.638C409.491 315.986 409.9 316.302 410.203 316.588C410.519 316.867 410.757 317.203 410.917 317.597C411.076 317.992 411.074 318.441 410.909 318.945C410.755 319.389 410.494 319.743 410.127 320.007C409.76 320.271 409.316 320.424 408.793 320.465C408.28 320.509 407.722 320.426 407.117 320.216ZM415.789 313.176C415.497 313.075 415.285 312.89 415.156 312.623C415.026 312.356 415.013 312.076 415.114 311.783C415.216 311.49 415.401 311.279 415.668 311.149C415.935 311.02 416.215 311.006 416.508 311.108C416.791 311.206 416.998 311.389 417.127 311.656C417.257 311.924 417.271 312.204 417.169 312.496C417.067 312.789 416.883 313 416.615 313.13C416.348 313.259 416.073 313.275 415.789 313.176ZM416.224 314.486L413.512 322.294L411.897 321.733L414.608 313.925L416.224 314.486ZM419.771 317.195L418.27 321.517C418.169 321.81 418.161 322.045 418.247 322.224C418.346 322.396 418.561 322.539 418.892 322.654L419.884 322.998L419.416 324.345L418.141 323.902C417.413 323.649 416.915 323.285 416.646 322.811C416.377 322.336 416.375 321.716 416.641 320.951L418.142 316.629L417.221 316.31L417.679 314.992L418.6 315.312L419.274 313.37L420.903 313.936L420.229 315.878L422.128 316.537L421.67 317.855L419.771 317.195ZM259.334 292.913C259.607 292.129 260.008 291.49 260.54 290.997C261.08 290.508 261.687 290.194 262.359 290.057C263.044 289.914 263.726 289.96 264.406 290.197C265.02 290.41 265.511 290.718 265.879 291.121C266.26 291.518 266.525 291.944 266.675 292.398L267.068 291.264L268.698 291.83L265.986 299.638L264.357 299.072L264.76 297.91C264.358 298.183 263.879 298.36 263.321 298.442C262.763 298.524 262.182 298.459 261.578 298.249C260.907 298.016 260.352 297.633 259.913 297.099C259.477 296.556 259.2 295.92 259.083 295.192C258.978 294.457 259.062 293.697 259.334 292.913ZM265.715 295.161C265.902 294.622 265.951 294.115 265.862 293.64C265.783 293.168 265.6 292.765 265.313 292.433C265.026 292.1 264.675 291.862 264.259 291.718C263.843 291.573 263.42 291.543 262.989 291.626C262.561 291.699 262.165 291.895 261.8 292.213C261.449 292.525 261.179 292.95 260.992 293.489C260.805 294.027 260.75 294.537 260.826 295.019C260.912 295.504 261.096 295.917 261.38 296.259C261.676 296.595 262.027 296.833 262.433 296.974C262.849 297.119 263.272 297.149 263.703 297.066C264.135 296.983 264.528 296.781 264.883 296.46C265.251 296.132 265.528 295.699 265.715 295.161ZM280.315 295.722C280.929 295.935 281.433 296.253 281.826 296.676C282.228 297.101 282.48 297.612 282.58 298.208C282.689 298.807 282.621 299.461 282.375 300.169L280.776 304.774L279.174 304.218L280.69 299.854C280.933 299.155 280.944 298.56 280.722 298.071C280.504 297.571 280.092 297.217 279.488 297.007C278.883 296.797 278.336 296.818 277.846 297.072C277.368 297.319 277.008 297.792 276.765 298.491L275.249 302.855L273.648 302.299L275.164 297.935C275.407 297.235 275.417 296.641 275.196 296.151C274.978 295.652 274.566 295.297 273.962 295.087C273.357 294.877 272.81 294.899 272.319 295.152C271.842 295.399 271.482 295.872 271.239 296.571L269.723 300.936L268.108 300.374L270.82 292.567L272.435 293.128L272.125 294.021C272.501 293.791 272.923 293.658 273.392 293.619C273.86 293.581 274.326 293.642 274.789 293.803C275.412 294.019 275.924 294.345 276.323 294.78C276.722 295.215 276.967 295.729 277.058 296.322C277.458 295.931 277.956 295.686 278.552 295.586C279.151 295.477 279.739 295.522 280.315 295.722ZM291.409 303.878C291.307 304.171 291.197 304.429 291.077 304.652L285.111 302.58C284.942 303.22 285 303.801 285.284 304.323C285.568 304.846 286.013 305.212 286.617 305.422C287.487 305.724 288.227 305.573 288.838 304.97L290.581 305.576C290.096 306.212 289.461 306.653 288.677 306.899C287.905 307.139 287.061 307.1 286.145 306.782C285.399 306.523 284.785 306.125 284.305 305.587C283.838 305.044 283.539 304.411 283.409 303.688C283.291 302.959 283.372 302.193 283.651 301.39C283.93 300.587 284.335 299.939 284.866 299.446C285.41 298.947 286.032 298.634 286.733 298.507C287.443 298.383 288.18 298.454 288.945 298.719C289.682 298.975 290.283 299.364 290.748 299.885C291.212 300.407 291.503 301.016 291.621 301.713C291.742 302.401 291.672 303.123 291.409 303.878ZM289.9 302.783C290.097 302.184 290.05 301.633 289.759 301.13C289.468 300.627 289.016 300.268 288.402 300.055C287.845 299.862 287.305 299.875 286.784 300.097C286.266 300.308 285.864 300.703 285.578 301.282L289.9 302.783ZM295.715 302.69L294.214 307.012C294.112 307.305 294.105 307.541 294.191 307.719C294.29 307.891 294.505 308.034 294.835 308.149L295.827 308.493L295.36 309.84L294.084 309.397C293.357 309.144 292.859 308.78 292.59 308.306C292.32 307.831 292.319 307.211 292.584 306.446L294.085 302.124L293.164 301.805L293.622 300.487L294.543 300.807L295.217 298.865L296.847 299.431L296.173 301.373L298.071 302.032L297.614 303.35L295.715 302.69ZM299.294 309.031L296.221 312.346L295.173 311.982L297.537 308.42L299.294 309.031ZM304.532 308.643C304.811 307.84 305.216 307.192 305.747 306.699C306.291 306.199 306.908 305.885 307.599 305.754C308.29 305.624 309.009 305.688 309.755 305.947C310.7 306.275 311.401 306.773 311.857 307.439C312.326 308.1 312.525 308.884 312.454 309.79L310.711 309.185C310.704 308.748 310.582 308.367 310.346 308.042C310.11 307.716 309.755 307.472 309.283 307.308C308.622 307.078 308.011 307.13 307.45 307.465C306.902 307.793 306.482 308.378 306.19 309.218C305.898 310.059 305.863 310.783 306.087 311.39C306.319 312 306.766 312.42 307.428 312.649C308.363 312.974 309.124 312.778 309.712 312.061L311.455 312.667C310.952 313.382 310.308 313.867 309.52 314.123C308.736 314.369 307.881 314.331 306.955 314.01C306.209 313.751 305.605 313.356 305.144 312.825C304.685 312.285 304.396 311.655 304.275 310.935C304.167 310.21 304.253 309.446 304.532 308.643ZM315.551 316.995C314.814 316.739 314.205 316.343 313.725 315.805C313.248 315.259 312.944 314.624 312.814 313.901C312.687 313.169 312.763 312.401 313.042 311.598C313.318 310.805 313.737 310.162 314.3 309.669C314.863 309.177 315.504 308.87 316.223 308.749C316.943 308.629 317.675 308.698 318.422 308.957C319.168 309.216 319.786 309.616 320.276 310.157C320.765 310.697 321.078 311.336 321.215 312.071C321.351 312.806 321.281 313.571 321.006 314.364C320.73 315.158 320.306 315.799 319.734 316.289C319.162 316.778 318.505 317.084 317.763 317.208C317.034 317.325 316.297 317.254 315.551 316.995ZM316.038 315.592C316.453 315.737 316.875 315.772 317.303 315.698C317.74 315.628 318.141 315.434 318.506 315.116C318.87 314.798 319.151 314.355 319.348 313.788C319.545 313.222 319.602 312.707 319.519 312.244C319.439 311.772 319.255 311.374 318.965 311.051C318.675 310.728 318.322 310.495 317.906 310.35C317.49 310.206 317.069 310.17 316.641 310.244C316.222 310.321 315.84 310.522 315.495 310.846C315.152 311.162 314.883 311.603 314.686 312.169C314.394 313.01 314.38 313.736 314.644 314.346C314.922 314.951 315.386 315.366 316.038 315.592ZM327.939 312.263C328.553 312.476 329.057 312.794 329.45 313.216C329.853 313.642 330.104 314.153 330.204 314.749C330.304 315.344 330.231 315.996 329.985 316.705L328.386 321.31L326.785 320.754L328.3 316.39C328.543 315.691 328.554 315.096 328.332 314.606C328.114 314.107 327.702 313.753 327.098 313.543C326.493 313.333 325.946 313.354 325.456 313.607C324.978 313.854 324.618 314.327 324.375 315.027L322.86 319.391L321.244 318.83L323.956 311.022L325.571 311.583L325.261 312.476C325.637 312.247 326.06 312.113 326.528 312.074C327.006 312.039 327.476 312.102 327.939 312.263ZM333.236 323.138C332.622 322.924 332.107 322.624 331.691 322.236C331.288 321.842 331.011 321.407 330.858 320.93C330.71 320.445 330.708 319.962 330.853 319.483L332.525 320.064C332.438 320.405 332.497 320.737 332.702 321.063C332.919 321.382 333.245 321.617 333.68 321.767C334.133 321.925 334.512 321.961 334.817 321.877C335.134 321.786 335.341 321.603 335.436 321.329C335.538 321.036 335.471 320.77 335.237 320.53C335.012 320.293 334.627 319.985 334.082 319.605C333.552 319.241 333.129 318.919 332.813 318.64C332.497 318.361 332.256 318.018 332.091 317.611C331.934 317.207 331.945 316.75 332.122 316.24C332.266 315.825 332.521 315.49 332.884 315.235C333.251 314.971 333.696 314.818 334.218 314.777C334.75 314.739 335.313 314.824 335.909 315.031C336.797 315.339 337.431 315.814 337.812 316.454C338.206 317.088 338.287 317.799 338.056 318.587L336.44 318.026C336.533 317.667 336.488 317.339 336.306 317.042C336.123 316.746 335.814 316.522 335.379 316.371C334.954 316.224 334.601 316.191 334.318 316.273C334.036 316.354 333.848 316.528 333.757 316.792C333.684 317 333.699 317.201 333.801 317.395C333.903 317.589 334.048 317.767 334.236 317.927C334.427 318.078 334.713 318.289 335.096 318.559C335.61 318.907 336.019 319.224 336.322 319.509C336.638 319.788 336.876 320.125 337.035 320.519C337.195 320.913 337.192 321.362 337.028 321.866C336.874 322.31 336.613 322.664 336.246 322.929C335.879 323.193 335.434 323.345 334.912 323.386C334.399 323.43 333.84 323.348 333.236 323.138ZM346.593 323.045C346.492 323.338 346.381 323.596 346.261 323.819L340.296 321.747C340.126 322.387 340.184 322.968 340.468 323.49C340.753 324.012 341.197 324.378 341.802 324.588C342.671 324.89 343.411 324.74 344.023 324.137L345.766 324.742C345.28 325.378 344.645 325.819 343.861 326.066C343.089 326.306 342.246 326.267 341.329 325.949C340.583 325.689 339.97 325.291 339.489 324.754C339.022 324.21 338.723 323.577 338.593 322.855C338.476 322.126 338.556 321.36 338.835 320.557C339.114 319.754 339.519 319.106 340.05 318.613C340.594 318.114 341.216 317.8 341.917 317.673C342.627 317.549 343.364 317.62 344.13 317.886C344.866 318.142 345.467 318.531 345.932 319.052C346.396 319.573 346.688 320.182 346.805 320.88C346.927 321.567 346.856 322.289 346.593 323.045ZM345.084 321.949C345.282 321.351 345.235 320.8 344.944 320.297C344.653 319.793 344.2 319.435 343.586 319.222C343.029 319.028 342.49 319.042 341.968 319.263C341.45 319.475 341.048 319.87 340.763 320.448L345.084 321.949ZM347.581 323.594C347.859 322.791 348.264 322.143 348.796 321.65C349.339 321.151 349.957 320.836 350.648 320.706C351.339 320.575 352.058 320.64 352.804 320.899C353.749 321.227 354.449 321.724 354.906 322.391C355.375 323.052 355.574 323.835 355.503 324.742L353.76 324.137C353.752 323.7 353.631 323.319 353.394 322.994C353.158 322.668 352.804 322.423 352.332 322.259C351.67 322.029 351.059 322.082 350.499 322.416C349.95 322.745 349.53 323.329 349.238 324.17C348.946 325.011 348.912 325.735 349.135 326.341C349.368 326.952 349.815 327.371 350.476 327.601C351.411 327.926 352.173 327.73 352.761 327.013L354.503 327.618C354.001 328.333 353.356 328.818 352.569 329.074C351.785 329.321 350.93 329.283 350.004 328.961C349.257 328.702 348.654 328.307 348.192 327.776C347.734 327.236 347.445 326.606 347.324 325.887C347.216 325.161 347.302 324.397 347.581 323.594ZM359.396 324.808L357.895 329.13C357.793 329.422 357.785 329.658 357.871 329.836C357.97 330.008 358.185 330.152 358.516 330.266L359.508 330.611L359.04 331.957L357.765 331.514C357.038 331.261 356.539 330.898 356.27 330.423C356.001 329.949 355.999 329.329 356.265 328.564L357.766 324.242L356.845 323.922L357.303 322.604L358.224 322.924L358.898 320.983L360.527 321.549L359.853 323.49L361.752 324.15L361.294 325.467L359.396 324.808ZM369.107 330.864C369.005 331.157 368.895 331.415 368.775 331.638L362.809 329.566C362.64 330.206 362.698 330.787 362.982 331.309C363.266 331.832 363.711 332.198 364.315 332.408C365.185 332.71 365.925 332.559 366.536 331.956L368.279 332.562C367.794 333.198 367.159 333.639 366.375 333.885C365.603 334.125 364.759 334.086 363.843 333.768C363.097 333.509 362.483 333.111 362.003 332.573C361.536 332.03 361.237 331.397 361.107 330.674C360.989 329.945 361.07 329.179 361.349 328.376C361.628 327.573 362.033 326.925 362.564 326.432C363.108 325.933 363.73 325.62 364.431 325.493C365.141 325.369 365.878 325.44 366.643 325.705C367.38 325.961 367.981 326.35 368.446 326.871C368.91 327.393 369.201 328.002 369.319 328.699C369.44 329.387 369.37 330.109 369.107 330.864ZM367.598 329.769C367.795 329.17 367.748 328.619 367.457 328.116C367.166 327.613 366.714 327.254 366.1 327.041C365.543 326.848 365.003 326.861 364.482 327.083C363.964 327.294 363.562 327.689 363.276 328.268L367.598 329.769ZM373.413 329.676L371.912 333.998C371.81 334.291 371.803 334.526 371.889 334.705C371.988 334.877 372.203 335.02 372.533 335.135L373.525 335.479L373.058 336.826L371.782 336.383C371.055 336.13 370.557 335.766 370.288 335.292C370.018 334.817 370.017 334.197 370.282 333.432L371.783 329.11L370.862 328.791L371.32 327.473L372.241 327.793L372.915 325.851L374.545 326.417L373.871 328.359L375.769 329.018L375.312 330.336L373.413 329.676ZM384.329 331.991L381.617 339.798L380.002 339.237L380.322 338.316C379.955 338.549 379.531 338.688 379.05 338.732C378.581 338.771 378.116 338.709 377.653 338.549C377.039 338.335 376.531 338.016 376.128 337.59C375.735 337.168 375.483 336.657 375.374 336.058C375.274 335.462 375.347 334.81 375.593 334.102L377.187 329.511L378.789 330.067L377.278 334.417C377.035 335.116 377.023 335.715 377.241 336.214C377.462 336.704 377.876 337.054 378.48 337.264C379.085 337.474 379.626 337.455 380.103 337.208C380.593 336.955 380.96 336.479 381.203 335.78L382.714 331.43L384.329 331.991ZM387.682 334.426C388.056 334.111 388.474 333.912 388.937 333.83C389.412 333.741 389.919 333.79 390.458 333.977L389.877 335.649L389.466 335.506C388.833 335.286 388.296 335.279 387.854 335.486C387.421 335.695 387.067 336.197 386.791 336.991L385.364 341.1L383.749 340.539L386.46 332.731L388.076 333.292L387.682 334.426ZM250.476 318.418C250.748 317.634 251.15 316.996 251.681 316.503C252.222 316.013 252.828 315.7 253.5 315.563C254.185 315.419 254.868 315.466 255.548 315.702C256.162 315.915 256.653 316.223 257.021 316.627C257.402 317.024 257.667 317.449 257.816 317.903L258.21 316.77L259.839 317.336L257.128 325.143L255.498 324.577L255.902 323.415C255.5 323.688 255.02 323.866 254.462 323.947C253.905 324.029 253.324 323.965 252.719 323.755C252.048 323.522 251.493 323.139 251.054 322.605C250.618 322.062 250.342 321.426 250.224 320.697C250.12 319.962 250.203 319.202 250.476 318.418ZM256.856 320.666C257.043 320.128 257.093 319.621 257.004 319.145C256.924 318.673 256.741 318.271 256.454 317.938C256.167 317.606 255.816 317.367 255.401 317.223C254.985 317.079 254.562 317.048 254.13 317.131C253.703 317.205 253.306 317.401 252.942 317.719C252.59 318.031 252.321 318.456 252.134 318.994C251.947 319.533 251.891 320.043 251.967 320.524C252.053 321.009 252.238 321.423 252.521 321.765C252.817 322.1 253.169 322.339 253.575 322.48C253.99 322.624 254.414 322.655 254.845 322.572C255.276 322.489 255.669 322.286 256.024 321.965C256.392 321.638 256.669 321.205 256.856 320.666ZM260.079 321.754C260.351 320.97 260.753 320.331 261.284 319.838C261.825 319.348 262.431 319.035 263.103 318.898C263.788 318.755 264.476 318.803 265.165 319.042C265.675 319.22 266.137 319.507 266.549 319.904C266.974 320.295 267.269 320.726 267.434 321.196L268.743 317.427L270.373 317.993L266.731 328.478L265.101 327.912L265.51 326.736C265.114 327.022 264.638 327.206 264.08 327.288C263.532 327.373 262.955 327.31 262.351 327.1C261.671 326.864 261.106 326.477 260.658 325.94C260.222 325.397 259.945 324.761 259.828 324.032C259.723 323.297 259.807 322.538 260.079 321.754ZM266.46 324.002C266.647 323.463 266.696 322.956 266.607 322.481C266.527 322.009 266.344 321.606 266.058 321.274C265.771 320.941 265.42 320.703 265.004 320.558C264.588 320.414 264.165 320.383 263.734 320.467C263.306 320.54 262.91 320.736 262.545 321.054C262.193 321.366 261.924 321.791 261.737 322.33C261.55 322.868 261.495 323.378 261.571 323.86C261.656 324.345 261.841 324.758 262.124 325.1C262.421 325.436 262.772 325.674 263.178 325.815C263.594 325.96 264.017 325.99 264.448 325.907C264.879 325.824 265.272 325.622 265.628 325.3C265.995 324.973 266.273 324.54 266.46 324.002ZM272.745 320.659C272.453 320.557 272.241 320.373 272.112 320.105C271.983 319.838 271.969 319.558 272.07 319.265C272.172 318.972 272.357 318.761 272.624 318.632C272.891 318.502 273.171 318.488 273.464 318.59C273.747 318.689 273.954 318.871 274.083 319.139C274.213 319.406 274.227 319.686 274.125 319.979C274.023 320.272 273.839 320.483 273.571 320.612C273.304 320.742 273.029 320.757 272.745 320.659ZM273.18 321.969L270.468 329.776L268.853 329.215L271.564 321.408L273.18 321.969ZM276.517 324.414C276.916 324.15 277.394 323.978 277.952 323.896C278.509 323.815 279.086 323.877 279.681 324.084C280.361 324.32 280.921 324.705 281.36 325.239C281.812 325.766 282.093 326.388 282.205 327.104C282.316 327.82 282.235 328.57 281.963 329.354C281.691 330.138 281.285 330.786 280.748 331.298C280.213 331.801 279.602 332.128 278.914 332.281C278.238 332.428 277.561 332.383 276.88 332.146C276.285 331.94 275.797 331.638 275.416 331.241C275.039 330.835 274.766 330.401 274.598 329.94L272.915 334.786L271.299 334.225L275.3 322.705L276.916 323.267L276.517 324.414ZM280.319 328.783C280.506 328.245 280.554 327.743 280.461 327.277C280.382 326.805 280.192 326.405 279.893 326.079C279.606 325.746 279.255 325.508 278.839 325.364C278.433 325.223 278.01 325.192 277.569 325.272C277.138 325.355 276.74 325.556 276.376 325.874C276.021 326.195 275.749 326.625 275.562 327.163C275.375 327.702 275.32 328.212 275.396 328.693C275.485 329.169 275.673 329.573 275.96 329.905C276.256 330.241 276.607 330.48 277.013 330.621C277.429 330.765 277.852 330.796 278.284 330.712C278.727 330.623 279.129 330.413 279.487 330.082C279.855 329.755 280.132 329.322 280.319 328.783ZM286.085 325.292C285.792 325.19 285.581 325.006 285.451 324.738C285.322 324.471 285.308 324.191 285.41 323.898C285.511 323.605 285.696 323.394 285.963 323.265C286.231 323.135 286.511 323.121 286.803 323.223C287.087 323.322 287.293 323.504 287.423 323.772C287.552 324.039 287.566 324.319 287.464 324.612C287.363 324.905 287.178 325.116 286.911 325.245C286.644 325.375 286.368 325.39 286.085 325.292ZM286.519 326.602L283.807 334.409L282.192 333.848L284.904 326.041L286.519 326.602ZM288.718 336.258C288.104 336.045 287.589 335.744 287.173 335.356C286.77 334.962 286.493 334.527 286.34 334.051C286.192 333.565 286.19 333.083 286.335 332.604L288.007 333.184C287.92 333.525 287.979 333.858 288.184 334.183C288.401 334.502 288.727 334.737 289.162 334.888C289.615 335.045 289.994 335.082 290.299 334.997C290.617 334.906 290.823 334.723 290.918 334.45C291.02 334.157 290.953 333.89 290.719 333.65C290.495 333.413 290.109 333.105 289.564 332.725C289.034 332.361 288.611 332.039 288.295 331.76C287.979 331.481 287.738 331.138 287.573 330.731C287.417 330.328 287.427 329.871 287.604 329.361C287.749 328.945 288.003 328.61 288.366 328.355C288.733 328.091 289.178 327.938 289.7 327.897C290.232 327.86 290.795 327.944 291.391 328.151C292.279 328.459 292.913 328.934 293.294 329.574C293.688 330.209 293.769 330.92 293.538 331.707L291.922 331.146C292.015 330.787 291.97 330.459 291.788 330.163C291.605 329.866 291.296 329.642 290.861 329.492C290.436 329.344 290.083 329.311 289.8 329.393C289.518 329.475 289.33 329.648 289.239 329.912C289.166 330.12 289.181 330.321 289.283 330.515C289.385 330.71 289.53 330.887 289.718 331.047C289.909 331.198 290.195 331.409 290.578 331.68C291.092 332.028 291.501 332.344 291.804 332.63C292.12 332.909 292.358 333.245 292.517 333.639C292.677 334.034 292.674 334.483 292.51 334.987C292.356 335.431 292.095 335.785 291.728 336.049C291.361 336.313 290.916 336.466 290.394 336.507C289.881 336.551 289.322 336.468 288.718 336.258ZM294.317 333.677C294.596 332.874 295.001 332.226 295.532 331.733C296.076 331.234 296.694 330.919 297.385 330.789C298.076 330.658 298.794 330.722 299.541 330.982C300.485 331.31 301.186 331.807 301.643 332.474C302.112 333.134 302.311 333.918 302.239 334.825L300.496 334.219C300.489 333.783 300.367 333.402 300.131 333.076C299.895 332.751 299.541 332.506 299.068 332.342C298.407 332.112 297.796 332.165 297.235 332.499C296.687 332.828 296.267 333.412 295.975 334.253C295.683 335.094 295.649 335.817 295.872 336.424C296.105 337.034 296.552 337.454 297.213 337.684C298.148 338.009 298.91 337.813 299.497 337.096L301.24 337.701C300.738 338.416 300.093 338.901 299.305 339.157C298.521 339.403 297.666 339.366 296.74 339.044C295.994 338.785 295.39 338.39 294.929 337.859C294.471 337.319 294.181 336.689 294.061 335.97C293.953 335.244 294.038 334.48 294.317 333.677ZM305.886 332.169C305.594 332.068 305.382 331.883 305.253 331.616C305.124 331.349 305.11 331.069 305.211 330.776C305.313 330.483 305.498 330.272 305.765 330.142C306.032 330.013 306.312 329.999 306.605 330.101C306.888 330.199 307.095 330.382 307.224 330.649C307.354 330.916 307.368 331.196 307.266 331.489C307.164 331.782 306.98 331.993 306.712 332.123C306.445 332.252 306.17 332.268 305.886 332.169ZM306.321 333.479L303.609 341.287L301.994 340.726L304.705 332.918L306.321 333.479ZM312.425 335.457C313.039 335.67 313.543 335.988 313.936 336.41C314.338 336.836 314.59 337.346 314.69 337.942C314.79 338.538 314.717 339.19 314.471 339.899L312.871 344.504L311.27 343.948L312.786 339.583C313.029 338.884 313.039 338.29 312.818 337.8C312.6 337.301 312.188 336.946 311.584 336.736C310.979 336.526 310.432 336.548 309.941 336.801C309.464 337.048 309.104 337.521 308.861 338.22L307.345 342.584L305.73 342.023L308.441 334.216L310.057 334.777L309.747 335.67C310.123 335.44 310.545 335.307 311.014 335.268C311.492 335.233 311.962 335.296 312.425 335.457ZM320.833 338.377C321.438 338.587 321.929 338.895 322.307 339.302C322.697 339.702 322.962 340.127 323.102 340.578L323.496 339.445L325.125 340.01L322.369 347.946C322.12 348.663 321.747 349.249 321.251 349.701C320.752 350.163 320.159 350.454 319.471 350.575C318.793 350.7 318.057 350.624 317.263 350.348C316.205 349.981 315.414 349.425 314.888 348.682C314.36 347.948 314.196 347.139 314.397 346.256L315.998 346.813C315.98 347.261 316.126 347.678 316.438 348.061C316.756 348.457 317.193 348.752 317.75 348.945C318.402 349.172 318.995 349.156 319.53 348.897C320.074 348.641 320.477 348.135 320.74 347.38L321.192 346.076C320.79 346.349 320.309 346.531 319.748 346.622C319.2 346.707 318.628 346.646 318.033 346.44C317.353 346.203 316.789 345.817 316.34 345.28C315.904 344.737 315.627 344.101 315.51 343.372C315.405 342.637 315.489 341.877 315.761 341.093C316.034 340.309 316.436 339.671 316.967 339.178C317.507 338.688 318.114 338.375 318.786 338.237C319.471 338.094 320.153 338.141 320.833 338.377ZM322.142 343.341C322.329 342.803 322.378 342.296 322.289 341.82C322.21 341.348 322.027 340.946 321.74 340.613C321.453 340.281 321.102 340.042 320.686 339.898C320.271 339.754 319.847 339.723 319.416 339.806C318.988 339.88 318.592 340.076 318.228 340.394C317.876 340.706 317.606 341.131 317.419 341.669C317.232 342.208 317.177 342.718 317.253 343.199C317.339 343.684 317.523 344.098 317.807 344.44C318.103 344.775 318.454 345.014 318.86 345.155C319.276 345.299 319.7 345.33 320.131 345.247C320.562 345.164 320.955 344.961 321.31 344.64C321.678 344.313 321.955 343.88 322.142 343.341ZM336.794 348.224C336.692 348.516 336.581 348.774 336.462 348.997L330.496 346.925C330.327 347.565 330.384 348.146 330.669 348.669C330.953 349.191 331.398 349.557 332.002 349.767C332.871 350.069 333.612 349.918 334.223 349.316L335.966 349.921C335.481 350.557 334.846 350.998 334.062 351.244C333.29 351.484 332.446 351.445 331.53 351.127C330.784 350.868 330.17 350.47 329.69 349.932C329.222 349.389 328.924 348.756 328.793 348.033C328.676 347.304 328.757 346.538 329.036 345.735C329.315 344.932 329.72 344.285 330.251 343.791C330.795 343.292 331.417 342.979 332.117 342.852C332.827 342.728 333.565 342.799 334.33 343.065C335.067 343.321 335.668 343.709 336.132 344.23C336.597 344.752 336.888 345.361 337.006 346.058C337.127 346.746 337.056 347.468 336.794 348.224ZM335.285 347.128C335.482 346.529 335.435 345.979 335.144 345.475C334.853 344.972 334.401 344.614 333.787 344.4C333.229 344.207 332.69 344.221 332.169 344.442C331.65 344.653 331.249 345.048 330.963 345.627L335.285 347.128ZM342.218 342.946L338.577 353.432L336.961 352.871L340.603 342.385L342.218 342.946ZM344.59 345.612C344.297 345.51 344.086 345.326 343.957 345.058C343.827 344.791 343.813 344.511 343.915 344.218C344.017 343.925 344.201 343.714 344.469 343.585C344.736 343.455 345.016 343.441 345.309 343.543C345.592 343.642 345.799 343.824 345.928 344.092C346.057 344.359 346.071 344.639 345.97 344.932C345.868 345.225 345.683 345.436 345.416 345.565C345.149 345.695 344.874 345.71 344.59 345.612ZM345.024 346.922L342.313 354.729L340.697 354.168L343.409 346.361L345.024 346.922ZM348.572 349.631L347.071 353.953C346.969 354.245 346.962 354.481 347.048 354.659C347.147 354.831 347.362 354.975 347.692 355.089L348.684 355.434L348.217 356.78L346.942 356.337C346.214 356.084 345.716 355.721 345.447 355.246C345.178 354.772 345.176 354.152 345.442 353.387L346.943 349.065L346.022 348.745L346.479 347.427L347.4 347.747L348.074 345.806L349.704 346.372L349.03 348.313L350.929 348.973L350.471 350.29L348.572 349.631ZM350.323 357.623C350.03 357.521 349.819 357.336 349.69 357.069C349.56 356.802 349.546 356.522 349.648 356.229C349.75 355.936 349.934 355.725 350.201 355.596C350.469 355.466 350.749 355.452 351.042 355.554C351.325 355.652 351.531 355.835 351.661 356.102C351.79 356.37 351.804 356.65 351.702 356.943C351.601 357.235 351.416 357.447 351.149 357.576C350.882 357.706 350.606 357.721 350.323 357.623Z" fill="#353535"/>
<path d="M825 406.002L829.794 402.944L830.187 408.712L825 406.002ZM871.533 345.66L871.183 345.292L871.533 345.66ZM829.391 405.353C831.976 404.908 834.837 403.871 837.017 402.137C839.185 400.411 840.667 398.01 840.577 394.792L841.577 394.798C841.677 398.387 840.007 401.056 837.656 402.927C835.316 404.788 832.29 405.874 829.593 406.338L829.391 405.353ZM840.577 394.792C840.426 389.327 837.227 385.511 835.491 382.55C835.064 381.822 834.713 381.12 834.553 380.456C834.389 379.776 834.42 379.108 834.791 378.497C835.15 377.904 835.791 377.43 836.701 377.033C837.616 376.634 838.849 376.292 840.461 375.99L840.677 376.973C839.098 377.268 837.946 377.594 837.127 377.951C836.305 378.31 835.866 378.68 835.651 379.036C835.446 379.373 835.406 379.759 835.526 380.253C835.649 380.764 835.935 381.359 836.35 382.067C837.98 384.848 841.416 388.993 841.577 394.798L840.577 394.792ZM840.461 375.99C846.867 374.79 852.926 374.642 857.393 374.189C859.649 373.961 861.48 373.657 862.798 373.126C864.103 372.601 864.823 371.89 865.024 370.879L866.005 371.105C865.717 372.556 864.669 373.463 863.198 374.055C861.742 374.642 859.79 374.955 857.527 375.184C852.957 375.647 847.033 375.782 840.677 376.973L840.461 375.99ZM865.024 370.879C865.231 369.835 864.794 368.756 864.112 367.337C863.451 365.961 862.597 364.329 862.249 362.354C861.539 358.331 862.936 353.076 871.183 345.292L871.883 346.029C863.732 353.722 862.609 358.671 863.234 362.213C863.553 364.02 864.33 365.512 865.011 366.929C865.671 368.302 866.287 369.686 866.005 371.105L865.024 370.879ZM871.183 345.292C873.901 342.726 876.304 340.275 879.654 338.039C883.014 335.797 887.314 333.778 893.855 332.017L894.145 332.983C887.686 334.722 883.486 336.703 880.229 338.876C876.963 341.056 874.632 343.434 871.883 346.029L871.183 345.292Z" fill="black"/>
<defs>
<linearGradient id="paint0_linear_2511_15" x1="-242.812" y1="-46.5" x2="1304.4" y2="279.712" gradientUnits="userSpaceOnUse">
<stop stop-color="#FFCC00"/>
<stop offset="1" stop-color="#FFF5CB"/>
</linearGradient>
<linearGradient id="paint1_linear_2511_15" x1="247.925" y1="255.711" x2="51.832" y2="184.047" gradientUnits="userSpaceOnUse">
<stop stop-color="#52AB70"/>
<stop offset="1" stop-color="#52AB70" stop-opacity="0.48"/>
</linearGradient>
</defs>
</svg>
